# xmcd
#
# Track frame offsets: 
#        150
#        44939
#        82935
#        153851
#
# Disc length: 2432 seconds
#
# Revision: 0
# Processed by: cddbd v1.5.2PL0 Copyright (c) Steve Scherf et al.
# Submitted via: ExactAudioCopy v0.95b3
#
DISCID=28097e04
DTITLE=Jimi Hendrix  - Kick Out The Jams - Disc 3 - 154  FLAC
DYEAR=1900
DGENRE=
TTITLE0=Everything's Gonna Be Alright
TTITLE1=Stormy Monday
TTITLE2=Three Little Bears Jam
TTITLE3=Jam IV
EXTD=
EXTT0=
EXTT1=
EXTT2=
EXTT3=
PLAYORDER=
